<?xml version="1.0" encoding="utf-8"?>
<!-- Generator: Adobe Adobe Illustrator 24.2.0, SVG Export Plug-In . SVG Version: 6.00 Build 0)  -->
<svg version="1.1" id="Layer_1" xmlns="http://www.w3.org/2000/svg" xmlns:xlink="http://www.w3.org/1999/xlink" x="0px" y="0px"
	 width="504px" height="504px" viewBox="0 0 504 504" style="enable-background:new 0 0 504 504;" xml:space="preserve">
<style type="text/css">
	.st0{fill:#0F0404;}
	.st1{fill:#170016;}
</style>
<path class="st0" d="M60.25,413.11l217.5-309.51c3.17-4.51,10.26-2.27,10.26,3.24v101.63c0,8.93-2.75,17.64-7.89,24.95
	L154.54,412.12c-4.35,6.2-11.45,9.88-19.02,9.88H64.86C60.29,422,57.62,416.85,60.25,413.11z"/>
<path class="st1" d="M306,110.64v303.92c0,4.66,3.83,8.45,8.55,8.45h61.9c4.72,0,8.55-3.78,8.55-8.45V110.64
	c0-4.66-3.83-8.45-8.55-8.45h-61.9C309.83,102.19,306,105.97,306,110.64z"/>
</svg>
